<?xml version="1.0" encoding="utf-8"?>
<!-- Generator: Adobe Illustrator 28.3.0, SVG Export Plug-In . SVG Version: 6.00 Build 0)  -->
<svg version="1.1" id="Layer_1" xmlns="http://www.w3.org/2000/svg" xmlns:xlink="http://www.w3.org/1999/xlink" x="0px" y="0px"
	 viewBox="0 0 56 48" style="enable-background:new 0 0 56 48;" xml:space="preserve">
<style type="text/css">
	.st0{fill:#FFA500;}
	.st1{fill:#FFA500;stroke:#FFA500;stroke-width:2.5232;stroke-linejoin:round;}
</style>
<g id="night" transform="translate(-4,-18)">
	<g transform="matrix(.8 0 0 .78534 36 20.022)">
		<g>
			<polygon class="st0" points="-29.8,2.4 -26.6,4 -29.8,5.9 -31.6,9 -33.2,5.9 -36.4,4 -33.2,2.4 -31.6,-0.8 			"/>
		</g>
		<g>
			<polygon class="st0" points="23.2,28.9 26.4,30.5 23.2,32.4 21.4,35.5 19.8,32.4 16.6,30.5 19.8,28.9 21.4,25.7 			"/>
		</g>
		<g>
			<path class="st1" d="M-2,30.2c0-9.8,5.3-18.3,13.2-23C7.3,4.8,2.8,3.8-2,3.8c-14.6,0-26.5,11.9-26.5,26.5S-16.5,56.7-2,56.7
				c4.8,0,9.3-1.3,13.2-3.4C3.3,48.8-2,40-2,30.2z"/>
		</g>
	</g>
</g>
</svg>
