<?xml version="1.0" encoding="utf-8"?>
<!-- Generator: Adobe Illustrator 28.3.0, SVG Export Plug-In . SVG Version: 6.00 Build 0)  -->
<svg version="1.1" id="Layer_1" xmlns="http://www.w3.org/2000/svg" xmlns:xlink="http://www.w3.org/1999/xlink" x="0px" y="0px"
	 viewBox="0 0 56 48" style="enable-background:new 0 0 56 48;" xml:space="preserve">
<style type="text/css">
	.st0{fill:none;stroke:#FFA500;stroke-width:2;stroke-linecap:round;}
	.st1{fill:#FFA500;stroke:#FFA500;stroke-width:2;}
	.st2{fill:#C6DEFF;stroke:#FFFFFF;stroke-width:1.2;stroke-linejoin:round;}
</style>
<g transform="translate(16,-2)">
	<g transform="translate(0,16)">
		<g>
			<line class="st0" x1="1.5" y1="18.8" x2="1.5" y2="22.8"/>
			<g transform="rotate(45)">
				<line class="st0" x1="5.9" y1="15.8" x2="5.9" y2="19.8"/>
			</g>
			<g transform="rotate(90)">
				<line class="st0" x1="6.8" y1="10.5" x2="6.8" y2="14.6"/>
			</g>
			<g transform="rotate(135)">
				<line class="st0" x1="3.7" y1="6.2" x2="3.7" y2="10.2"/>
			</g>
			<g transform="scale(-1)">
				<line class="st0" x1="-1.5" y1="5.3" x2="-1.5" y2="9.3"/>
			</g>
			<g transform="rotate(225)">
				<line class="st0" x1="-5.9" y1="8.3" x2="-5.9" y2="12.3"/>
			</g>
			<g transform="rotate(-90)">
				<line class="st0" x1="-6.8" y1="13.5" x2="-6.8" y2="17.6"/>
			</g>
			<g transform="rotate(-45)">
				<line class="st0" x1="-3.7" y1="17.9" x2="-3.7" y2="21.9"/>
			</g>
			<circle class="st1" cx="1.5" cy="6.8" r="6.7"/>
		</g>
	</g>
	<g>
		<path class="st2" d="M38.6,34c0-6.2-5-11-11-11c-1.3,0-2.5,0.3-3.7,0.7c-0.4-4.5-4.1-8.3-8.8-8.3c-5,0-9,4-9,9
			c0,1.1,0.3,2.1,0.5,3.1c-0.4-0.1-0.9-0.1-1.3-0.1c-5,0-9,4-9,9c0,4.8,3.9,8.8,8.7,9h23C33.9,44.6,38.6,39.9,38.6,34z"/>
	</g>
</g>
</svg>
