<?xml version="1.0" encoding="utf-8"?>
<!-- Generator: Adobe Illustrator 28.3.0, SVG Export Plug-In . SVG Version: 6.00 Build 0)  -->
<svg version="1.1" id="Layer_1" xmlns="http://www.w3.org/2000/svg" xmlns:xlink="http://www.w3.org/1999/xlink" x="0px" y="0px"
	 viewBox="0 0 56 48" style="enable-background:new 0 0 56 48;" xml:space="preserve">
<style type="text/css">
	.st0{fill:#91C0F8;stroke:#FFFFFF;stroke-width:0.72;stroke-linejoin:round;stroke-miterlimit:2.4;}
	.st1{fill:#57A0EE;stroke:#FFFFFF;stroke-width:1.2;stroke-linejoin:round;}
</style>
<g id="cloudy" transform="translate(16,-2)">
	<g>
		<path class="st0" d="M23.2,16.7c0-4.6-3.7-8.2-8.2-8.2c-1,0-1.9,0.2-2.8,0.5c-0.3-3.4-3.1-6.2-6.6-6.2c-3.7,0-6.7,3-6.7,6.7
			c0,0.8,0.2,1.6,0.4,2.3c-0.3-0.1-0.7-0.1-1-0.1c-3.7,0-6.7,3-6.7,6.7c0,3.6,2.9,6.6,6.5,6.7h17.1C19.7,24.6,23.2,21.1,23.2,16.7z"
			/>
	</g>
	<g>
		<path class="st1" d="M38.3,35.2c0-7.6-6.1-13.6-13.6-13.6c-1.7,0-3.2,0.3-4.7,0.8c-0.5-5.6-5.2-10.3-11-10.3
			c-6.1,0-11.1,5-11.1,11.1c0,1.3,0.3,2.7,0.7,3.8c-0.5-0.2-1.2-0.2-1.7-0.2c-6.1,0-11.1,5-11.1,11.1c0,6,4.8,11,10.8,11.1h28.6
			C32.4,48.3,38.3,42.5,38.3,35.2z"/>
	</g>
</g>
</svg>
