<?xml version="1.0" encoding="utf-8"?>
<!-- Generator: Adobe Illustrator 28.3.0, SVG Export Plug-In . SVG Version: 6.00 Build 0)  -->
<svg version="1.1" id="Layer_1" xmlns="http://www.w3.org/2000/svg" xmlns:xlink="http://www.w3.org/1999/xlink" x="0px" y="0px"
	 viewBox="0 0 56 48" style="enable-background:new 0 0 56 48;" xml:space="preserve">
<style type="text/css">
	.st0{fill:#FFA500;}
	.st1{fill:#FFA500;stroke:#FFA500;stroke-width:1.6;stroke-linejoin:round;stroke-miterlimit:3.2;}
	.st2{fill:#C6DEFF;stroke:#FFFFFF;stroke-width:1.2;stroke-linejoin:round;}
</style>
<g transform="translate(16,-2)">
	<g transform="matrix(.8 0 0 .8 16 4)">
		<g>
			<polygon class="st0" points="-3.2,6.4 -1.5,5.6 -0.7,4 0.2,5.6 1.9,6.4 0.2,7.4 -0.7,9 -1.5,7.4 			"/>
		</g>
		<g>
			<polygon class="st0" points="24.1,20.1 25.7,19.2 26.6,17.6 27.5,19.2 29.2,20.1 27.5,21 26.6,22.7 25.7,21 			"/>
		</g>
		<g>
			<path class="st1" d="M14.6,19.9c0-5,2.7-9.4,6.8-11.9c-2-1.2-4.4-1.8-6.8-1.8c-7.5,0-13.6,6.1-13.6,13.6s6.1,13.6,13.6,13.6
				c2.5,0,4.8-0.7,6.8-1.8C17.3,29.5,14.6,25,14.6,19.9z"/>
		</g>
	</g>
	<g>
		<path class="st2" d="M27.8,33.4c0-6.3-5-11.2-11.2-11.2c-1.4,0-2.6,0.3-3.8,0.7c-0.4-4.6-4.2-8.5-9-8.5c-5,0-9.1,4.1-9.1,9.1
			c0,1.1,0.3,2.2,0.5,3.1c-0.4-0.1-1-0.1-1.4-0.1c-5,0-9.1,4.1-9.1,9.1c0,4.9,4,9,8.9,9.1H17C23,44.1,27.8,39.4,27.8,33.4z"/>
	</g>
</g>
</svg>
