<?xml version="1.0" encoding="utf-8"?>
<!-- Generator: Adobe Illustrator 28.3.0, SVG Export Plug-In . SVG Version: 6.00 Build 0)  -->
<svg version="1.1" id="Layer_1" xmlns="http://www.w3.org/2000/svg" xmlns:xlink="http://www.w3.org/1999/xlink" x="0px" y="0px"
	 viewBox="0 0 56 48" style="enable-background:new 0 0 56 48;" xml:space="preserve">
<style type="text/css">
	.st0{fill:#FFA500;}
	.st1{fill:#FFA500;stroke:#FFA500;stroke-width:1.6;stroke-linejoin:round;stroke-miterlimit:3.2;}
	.st2{fill:#57A0EE;stroke:#FFFFFF;stroke-width:1.2;stroke-linejoin:round;}
	.st3{fill:none;stroke:#57A0EE;stroke-width:1.2;stroke-linecap:round;}
	.st4{fill:none;stroke:#57A0EE;stroke-linecap:round;}
</style>
<g transform="translate(16,-2)">
	<g transform="matrix(.8 0 0 .8 16 4)">
		<g>
			<polygon class="st0" points="0.2,1.8 -0.7,3.4 -1.5,1.8 -3.2,0.8 -1.5,0 -0.7,-1.6 0.2,0 1.9,0.8 			"/>
		</g>
		<g>
			<polygon class="st0" points="27.3,15.3 26.4,16.9 25.6,15.3 23.9,14.4 25.6,13.5 26.4,11.9 27.3,13.5 29,14.4 			"/>
		</g>
		<g>
			<path class="st1" d="M14.5,14.2c0-5,2.7-9.3,6.8-11.8c-2-1.2-4.3-1.8-6.8-1.8C7,0.7,0.9,6.8,0.9,14.2S7,27.8,14.5,27.8
				c2.4,0,4.7-0.7,6.8-1.8C17.2,23.7,14.5,19.2,14.5,14.2z"/>
		</g>
	</g>
	<g>
		<path class="st2" d="M27.7,28.7c0-6.2-5-11.1-11.1-11.1c-1.4,0-2.6,0.3-3.8,0.7c-0.4-4.6-4.2-8.4-8.9-8.4c-5,0-9.1,4.1-9.1,9.1
			c0,1.1,0.3,2.2,0.5,3.1c-0.4-0.1-0.9-0.1-1.4-0.1c-5,0-9.1,4.1-9.1,9.1c0,4.9,3.9,8.9,8.8,9.1H17C23,39.4,27.7,34.7,27.7,28.7z"/>
	</g>
	<g>
		<g transform="translate(3,28)">
			<line class="st3" x1="-8.8" y1="14.4" x2="-8.8" y2="21.2"/>
			<line class="st4" x1="-6.4" y1="15.4" x2="-11.2" y2="20.2"/>
			<line class="st4" x1="-5.4" y1="17.8" x2="-12.1" y2="17.8"/>
			<line class="st4" x1="-6.4" y1="20.2" x2="-11.2" y2="15.4"/>
		</g>
	</g>
	<g>
		<g transform="translate(11,28)">
			<line class="st3" x1="-5.9" y1="14.4" x2="-5.9" y2="21.2"/>
			<line class="st4" x1="-3.5" y1="15.4" x2="-8.3" y2="20.2"/>
			<line class="st4" x1="-2.5" y1="17.8" x2="-9.3" y2="17.8"/>
			<line class="st4" x1="-3.5" y1="20.2" x2="-8.3" y2="15.4"/>
		</g>
	</g>
	<g>
		<g transform="translate(20,28)">
			<line class="st3" x1="-2.7" y1="14.4" x2="-2.7" y2="21.2"/>
			<line class="st4" x1="-0.3" y1="15.4" x2="-5.1" y2="20.2"/>
			<line class="st4" x1="0.7" y1="17.8" x2="-6.1" y2="17.8"/>
			<line class="st4" x1="-0.3" y1="20.2" x2="-5.1" y2="15.4"/>
		</g>
	</g>
</g>
</svg>
