<?xml version="1.0" encoding="utf-8"?>
<!-- Generator: Adobe Illustrator 28.3.0, SVG Export Plug-In . SVG Version: 6.00 Build 0)  -->
<svg version="1.1" id="Layer_1" xmlns="http://www.w3.org/2000/svg" xmlns:xlink="http://www.w3.org/1999/xlink" x="0px" y="0px"
	 viewBox="0 0 56 48" style="enable-background:new 0 0 56 48;" xml:space="preserve">
<style type="text/css">
	.st0{fill:none;stroke:#FFA500;stroke-width:2;stroke-linecap:round;}
	.st1{fill:#FFA500;stroke:#FFA500;stroke-width:2;}
	.st2{fill:#57A0EE;stroke:#FFFFFF;stroke-width:1.2;stroke-linejoin:round;}
	.st3{fill:none;stroke:#57A0EE;stroke-width:1.2;stroke-linecap:round;}
	.st4{fill:none;stroke:#57A0EE;stroke-linecap:round;}
</style>
<g transform="translate(16,-2)">
	<g transform="translate(0,16)">
		<g>
			<line class="st0" x1="2.5" y1="14.2" x2="2.5" y2="18"/>
			<g transform="rotate(45)">
				<line class="st0" x1="3.6" y1="11.6" x2="3.6" y2="15.5"/>
			</g>
			<g transform="rotate(90)">
				<line class="st0" x1="2.6" y1="9" x2="2.6" y2="12.9"/>
			</g>
			<g transform="rotate(135)">
				<line class="st0" x1="0.1" y1="7.9" x2="0.1" y2="11.8"/>
			</g>
			<g transform="scale(-1)">
				<line class="st0" x1="-2.5" y1="8.9" x2="-2.5" y2="12.8"/>
			</g>
			<g transform="rotate(225)">
				<line class="st0" x1="-3.6" y1="11.5" x2="-3.6" y2="15.3"/>
			</g>
			<g transform="rotate(-90)">
				<line class="st0" x1="-2.6" y1="14" x2="-2.6" y2="17.9"/>
			</g>
			<g transform="rotate(-45)">
				<line class="st0" x1="-0.1" y1="15.2" x2="-0.1" y2="19"/>
			</g>
		</g>
		<circle class="st1" cx="2.5" cy="2.6" r="6.4"/>
	</g>
	<g>
		<path class="st2" d="M38,29.4c0-5.9-4.7-10.5-10.5-10.5c-1.3,0-2.4,0.3-3.6,0.6c-0.4-4.4-4-7.9-8.5-7.9c-4.7,0-8.6,3.8-8.6,8.6
			c0,1,0.3,2.1,0.5,2.9C7,23,6.5,23,6.1,23c-4.7,0-8.6,3.8-8.6,8.6c0,4.6,3.7,8.5,8.3,8.6h22.1C33.5,39.5,38,35,38,29.4z"/>
	</g>
	<g>
		<g transform="translate(3,28)">
			<line class="st3" x1="3.4" y1="14.3" x2="3.4" y2="20.8"/>
			<line class="st4" x1="5.6" y1="15.3" x2="1.1" y2="19.8"/>
			<line class="st4" x1="6.6" y1="17.6" x2="0.2" y2="17.6"/>
			<line class="st4" x1="5.6" y1="19.8" x2="1.1" y2="15.3"/>
		</g>
	</g>
	<g>
		<g transform="translate(11,28)">
			<line class="st3" x1="5.6" y1="14.3" x2="5.6" y2="20.8"/>
			<line class="st4" x1="7.9" y1="15.3" x2="3.3" y2="19.8"/>
			<line class="st4" x1="8.8" y1="17.6" x2="2.4" y2="17.6"/>
			<line class="st4" x1="7.9" y1="19.8" x2="3.3" y2="15.3"/>
		</g>
	</g>
	<g>
		<g transform="translate(20,28)">
			<line class="st3" x1="8.2" y1="14.3" x2="8.2" y2="20.8"/>
			<line class="st4" x1="10.4" y1="15.3" x2="5.9" y2="19.8"/>
			<line class="st4" x1="11.4" y1="17.6" x2="4.9" y2="17.6"/>
			<line class="st4" x1="10.4" y1="19.8" x2="5.9" y2="15.3"/>
		</g>
	</g>
</g>
</svg>
